<svg width="24" height="24" viewBox="0 0 24 24" fill="none" xmlns="http://www.w3.org/2000/svg">
    <rect width="24" height="24" rx="4" fill="#F0F0F0"/>
    <path d="M5.25 7.5H6.75H18.75" stroke="#888888" stroke-width="2" stroke-linecap="round" stroke-linejoin="round"/>
    <path d="M18.25 7.5C18.25 6.94772 17.8023 6.5 17.25 6.5C16.6977 6.5 16.25 6.94772 16.25 7.5H18.25ZM7.75 7.5C7.75 6.94772 7.30228 6.5 6.75 6.5C6.19772 6.5 5.75 6.94772 5.75 7.5H7.75ZM8 7.5C8 8.05228 8.44772 8.5 9 8.5C9.55228 8.5 10 8.05228 10 7.5H8ZM14 7.5C14 8.05228 14.4477 8.5 15 8.5C15.5523 8.5 16 8.05228 16 7.5H14ZM16.25 7.5V18H18.25V7.5H16.25ZM16.25 18C16.25 18.2761 16.0261 18.5 15.75 18.5V20.5C17.1307 20.5 18.25 19.3807 18.25 18H16.25ZM15.75 18.5H8.25V20.5H15.75V18.5ZM8.25 18.5C7.97386 18.5 7.75 18.2761 7.75 18H5.75C5.75 19.3807 6.86929 20.5 8.25 20.5V18.5ZM7.75 18V7.5H5.75V18H7.75ZM10 7.5V6H8V7.5H10ZM10 6C10 5.72386 10.2239 5.5 10.5 5.5V3.5C9.11929 3.5 8 4.61929 8 6H10ZM10.5 5.5H13.5V3.5H10.5V5.5ZM13.5 5.5C13.7761 5.5 14 5.72386 14 6H16C16 4.61929 14.8807 3.5 13.5 3.5V5.5ZM14 6V7.5H16V6H14Z" fill="#888888"/>
</svg>
